<svg id="visual" viewBox="0 0 1728 800" width="1728" height="800" xmlns="http://www.w3.org/2000/svg" xmlns:xlink="http://www.w3.org/1999/xlink" version="1.1"><path d="M0 129L157 129L157 105L314 105L314 49L471 49L471 73L628 73L628 89L785 89L785 57L943 57L943 105L1100 105L1100 49L1257 49L1257 105L1414 105L1414 129L1571 129L1571 81L1728 81L1728 65L1728 0L1728 0L1571 0L1571 0L1414 0L1414 0L1257 0L1257 0L1100 0L1100 0L943 0L943 0L785 0L785 0L628 0L628 0L471 0L471 0L314 0L314 0L157 0L157 0L0 0Z" fill="#ffffff"></path><path d="M0 345L157 345L157 241L314 241L314 241L471 241L471 233L628 233L628 337L785 337L785 249L943 249L943 369L1100 369L1100 233L1257 233L1257 377L1414 377L1414 321L1571 321L1571 441L1728 441L1728 281L1728 63L1728 79L1571 79L1571 127L1414 127L1414 103L1257 103L1257 47L1100 47L1100 103L943 103L943 55L785 55L785 87L628 87L628 71L471 71L471 47L314 47L314 103L157 103L157 127L0 127Z" fill="#f6fdfc"></path><path d="M0 553L157 553L157 481L314 481L314 593L471 593L471 561L628 561L628 585L785 585L785 585L943 585L943 577L1100 577L1100 577L1257 577L1257 609L1414 609L1414 497L1571 497L1571 561L1728 561L1728 561L1728 279L1728 439L1571 439L1571 319L1414 319L1414 375L1257 375L1257 231L1100 231L1100 367L943 367L943 247L785 247L785 335L628 335L628 231L471 231L471 239L314 239L314 239L157 239L157 343L0 343Z" fill="#ecfafa"></path><path d="M0 689L157 689L157 617L314 617L314 681L471 681L471 617L628 617L628 641L785 641L785 641L943 641L943 641L1100 641L1100 673L1257 673L1257 665L1414 665L1414 633L1571 633L1571 649L1728 649L1728 729L1728 559L1728 559L1571 559L1571 495L1414 495L1414 607L1257 607L1257 575L1100 575L1100 575L943 575L943 583L785 583L785 583L628 583L628 559L471 559L471 591L314 591L314 479L157 479L157 551L0 551Z" fill="#e3f7f8"></path><path d="M0 801L157 801L157 801L314 801L314 801L471 801L471 801L628 801L628 801L785 801L785 801L943 801L943 801L1100 801L1100 801L1257 801L1257 801L1414 801L1414 801L1571 801L1571 801L1728 801L1728 801L1728 727L1728 647L1571 647L1571 631L1414 631L1414 663L1257 663L1257 671L1100 671L1100 639L943 639L943 639L785 639L785 639L628 639L628 615L471 615L471 679L314 679L314 615L157 615L157 687L0 687Z" fill="#d9f4f6"></path></svg>